<svg xmlns="http://www.w3.org/2000/svg" viewBox="0 0 48 48" width="48" height="48">
  <!-- Skewed background (app-logo style) -->
  <rect x="4" y="6" width="40" height="36" rx="8" fill="#0ea5e9" transform="skewX(-10)"/>
  <!-- Paper plane icon (centered, counter-skewed) -->
  <g transform="translate(24, 24) skewX(10) translate(-12, -12)">
    <path d="M22.5 2.1c.5.3.8.9.7 1.5l-3 19.4c-.1.5-.4.9-.8 1.1-.4.2-.9.3-1.3.1l-6.5-2.5-3.2 3.5c-.4.5-1.1.6-1.6.4-.5-.2-.9-.7-.9-1.3v-3.7c0-.2.1-.4.2-.5l10.5-9c.3-.3.3-.7 0-1-.3-.3-.7-.3-1-.1L4.9 16.8.8 15c-.5-.2-.8-.6-.8-1.1 0-.5.3-1 .8-1.3l21-10c.5-.3 1.1-.2 1.6.1z" fill="white" transform="scale(1)"/>
  </g>
</svg>
