<svg xmlns="http://www.w3.org/2000/svg" viewBox="0 0 192 192" width="192" height="192">
  <!-- Background circle -->
  <rect width="192" height="192" rx="40" fill="#0ea5e9"/>
  <!-- Paper plane icon -->
  <g transform="translate(96, 96)">
    <path d="M50 -60c4 2.5 6.5 7 5.5 12l-24 155c-.8 4-3.2 7.2-6.4 8.8-3.2 1.6-7.2 2.4-10.4.8l-52-20-25.6 28c-3.2 4-8.8 4.8-12.8 3.2-4-1.6-7.2-5.6-7.2-10.4v-29.6c0-1.6.8-3.2 1.6-4l84-72c2.4-2.4 2.4-5.6 0-8-2.4-2.4-5.6-2.4-8-.8L-85.6 70l-32.8-14.4c-4-1.6-6.4-4.8-6.4-8.8s2.4-8 6.4-10.4l168-80c4-2.4 8.8-1.6 12.8.8z" fill="white" transform="scale(0.55)"/>
  </g>
</svg>
